<svg width="31" height="31" viewBox="0 0 31 31" fill="none" xmlns="http://www.w3.org/2000/svg">
<g clip-path="url(#clip0_1957_31)">
<path d="M21.75 0.5H9.24999C5.79823 0.5 3.00003 3.2982 3.00003 6.75002V14.25H28.0001V6.75002C28 3.2982 25.2018 0.5 21.75 0.5ZM16.75 9.24998H14.25C13.5596 9.24998 13 8.69035 13 8C13 7.30965 13.5596 6.75002 14.25 6.75002H16.75C17.4403 6.75002 18 7.30965 18 8C18 8.69035 17.4403 9.24998 16.75 9.24998Z" fill="#212529"/>
<path d="M3.00003 24.25C3.00003 27.7018 5.79823 30.5 9.24999 30.5H21.75C25.2017 30.5 28 27.7018 28 24.25V16.75H3.00003V24.25ZM14.25 21.75H16.7501C17.4404 21.75 18 22.3097 18 23C18 23.6904 17.4404 24.25 16.7501 24.25H14.25C13.5597 24.25 13 23.6904 13 23C13 22.3097 13.5597 21.75 14.25 21.75Z" fill="#212529"/>
</g>
<defs>
<clipPath id="clip0_1957_31">
<rect width="30" height="30" fill="white" transform="translate(0.5 0.5)"/>
</clipPath>
</defs>
</svg>
