<svg width="31" height="31" viewBox="0 0 31 31" fill="none" xmlns="http://www.w3.org/2000/svg">
<g clip-path="url(#clip0_1957_37)">
<path d="M29.375 3C29.0435 3 28.7255 3.1317 28.4911 3.36612C28.2567 3.60054 28.125 3.91848 28.125 4.25V5.5H25.625V4.25C25.625 3.91848 25.4933 3.60054 25.2589 3.36612C25.0245 3.1317 24.7065 3 24.375 3C24.0435 3 23.7255 3.1317 23.4911 3.36612C23.2567 3.60054 23.125 3.91848 23.125 4.25V7.375C23.1249 8.09541 23.3736 8.79374 23.8292 9.35181C24.2848 9.90989 24.9191 10.2934 25.625 10.4375V21.75C25.625 22.413 25.3616 23.0489 24.8928 23.5178C24.4239 23.9866 23.788 24.25 23.125 24.25H20.625V14.25H18.125C17.7935 14.25 17.4755 14.1183 17.2411 13.8839C17.0067 13.6495 16.875 13.3315 16.875 13C16.875 12.6685 17.0067 12.3505 17.2411 12.1161C17.4755 11.8817 17.7935 11.75 18.125 11.75H20.625V6.75C20.623 5.09301 19.9639 3.50445 18.7922 2.33277C17.6206 1.1611 16.032 0.501985 14.375 0.5L6.875 0.5C5.21801 0.501985 3.62945 1.1611 2.45777 2.33277C1.2861 3.50445 0.626985 5.09301 0.625 6.75L0.625 11.75H3.125C3.45652 11.75 3.77446 11.8817 4.00888 12.1161C4.2433 12.3505 4.375 12.6685 4.375 13C4.375 13.3315 4.2433 13.6495 4.00888 13.8839C3.77446 14.1183 3.45652 14.25 3.125 14.25H0.625V24.25C0.626985 25.907 1.2861 27.4956 2.45777 28.6672C3.62945 29.8389 5.21801 30.498 6.875 30.5H14.375C15.5907 30.4986 16.7797 30.1432 17.7968 29.4773C18.8139 28.8114 19.6151 27.8637 20.1025 26.75H23.125C24.4511 26.75 25.7229 26.2232 26.6605 25.2855C27.5982 24.3479 28.125 23.0761 28.125 21.75V10.4375C28.8309 10.2934 29.4652 9.90989 29.9208 9.35181C30.3764 8.79374 30.6251 8.09541 30.625 7.375V4.25C30.625 3.91848 30.4933 3.60054 30.2589 3.36612C30.0245 3.1317 29.7065 3 29.375 3ZM14.04 14.8625L11.6875 18.6588C11.5128 18.9405 11.2333 19.1414 10.9105 19.2171C10.5877 19.2928 10.248 19.2372 9.96625 19.0625C9.68446 18.8878 9.48361 18.6083 9.40789 18.2855C9.33217 17.9627 9.38779 17.623 9.5625 17.3412L11.4787 14.25H8.89375C8.57859 14.2501 8.26779 14.1764 7.98625 14.0348C7.70472 13.8931 7.46028 13.6875 7.27253 13.4344C7.08478 13.1813 6.95894 12.8877 6.9051 12.5772C6.85126 12.2666 6.87092 11.9478 6.9625 11.6462C6.99154 11.5438 7.03355 11.4455 7.0875 11.3537L9.56 7.345C9.64118 7.19581 9.75191 7.06473 9.88544 6.95977C10.019 6.8548 10.1725 6.77814 10.3366 6.73448C10.5007 6.69081 10.6721 6.68106 10.8401 6.7058C11.0081 6.73055 11.1694 6.78928 11.3139 6.87841C11.4585 6.96753 11.5834 7.08519 11.681 7.2242C11.7786 7.3632 11.8468 7.52064 11.8816 7.68689C11.9163 7.85315 11.9168 8.02474 11.883 8.19119C11.8492 8.35764 11.7818 8.51545 11.685 8.655L9.785 11.75H12.375C12.738 11.7486 13.0945 11.8459 13.4064 12.0317C13.7183 12.2174 13.9737 12.4845 14.1453 12.8044C14.317 13.1243 14.3983 13.4848 14.3806 13.8474C14.3629 14.2099 14.2469 14.5608 14.045 14.8625H14.04Z" fill="#212529"/>
</g>
<defs>
<clipPath id="clip0_1957_37">
<rect width="30" height="30" fill="white" transform="translate(0.625 0.5)"/>
</clipPath>
</defs>
</svg>
