<svg width="24" height="25" viewBox="0 0 24 25" fill="none" xmlns="http://www.w3.org/2000/svg">
<g clip-path="url(#clip0_1957_49)">
<path d="M19 0.5H13C10.243 0.5 8 2.743 8 5.5V11.5C8 14.257 10.243 16.5 13 16.5H19C21.757 16.5 24 14.257 24 11.5V5.5C24 2.743 21.757 0.5 19 0.5ZM22 11.5C22 13.154 20.654 14.5 19 14.5H13C11.346 14.5 10 13.154 10 11.5V5.5C10 3.846 11.346 2.5 13 2.5H19C20.654 2.5 22 3.846 22 5.5V11.5ZM16 19.5C16 22.257 13.757 24.5 11 24.5H5C2.243 24.5 0 22.257 0 19.5V13.5C0 10.743 2.243 8.5 5 8.5C5.553 8.5 6 8.948 6 9.5C6 10.052 5.553 10.5 5 10.5C3.346 10.5 2 11.846 2 13.5V19.5C2 21.154 3.346 22.5 5 22.5H11C12.654 22.5 14 21.154 14 19.5C14 18.948 14.447 18.5 15 18.5C15.553 18.5 16 18.948 16 19.5Z" fill="#212529"/>
</g>
<defs>
<clipPath id="clip0_1957_49">
<rect width="24" height="24" fill="white" transform="translate(0 0.5)"/>
</clipPath>
</defs>
</svg>
