<svg width="31" height="31" viewBox="0 0 31 31" fill="none" xmlns="http://www.w3.org/2000/svg">
<path d="M11.5 5.5C11.5 2.73875 15.6975 0.5 20.875 0.5C26.0525 0.5 30.25 2.73875 30.25 5.5C30.25 8.26125 26.0525 10.5 20.875 10.5C15.6975 10.5 11.5 8.26125 11.5 5.5ZM20.875 13C19.5912 13 18.3738 12.8563 17.2612 12.6063C15.5625 11.3325 12.7788 10.5 9.625 10.5C4.4475 10.5 0.25 12.7387 0.25 15.5C0.25 18.2612 4.4475 20.5 9.625 20.5C14.8025 20.5 19 18.2612 19 15.5C19 15.4637 18.9912 15.4287 18.99 15.3925H19V18C19 20.7612 14.8025 23 9.625 23C4.4475 23 0.25 20.7612 0.25 18V20.5C0.25 23.2612 4.4475 25.5 9.625 25.5C14.8025 25.5 19 23.2612 19 20.5V23C19 25.7612 14.8025 28 9.625 28C4.4475 28 0.25 25.7612 0.25 23V25.5C0.25 28.2612 4.4475 30.5 9.625 30.5C14.8025 30.5 19 28.2612 19 25.5V25.4C19.6063 25.465 20.2325 25.5 20.875 25.5C26.0525 25.5 30.25 23.2612 30.25 20.5V18C30.25 20.6488 26.385 22.8112 21.5 22.9837V20.4838C26.385 20.3113 30.25 18.15 30.25 15.5V13C30.25 15.6488 26.385 17.8113 21.5 17.9838V15.4838C26.385 15.3113 30.25 13.15 30.25 10.5V8C30.25 10.7613 26.0525 13 20.875 13Z" fill="#212529"/>
</svg>
