<svg width="14" height="14" viewBox="0 0 14 14" fill="none" xmlns="http://www.w3.org/2000/svg">
<g>
<path d="M12.7208 1.27916C12.542 1.10042 12.2996 1 12.0467 1C11.7939 1 11.5514 1.10042 11.3726 1.27916L7 5.65179L2.62737 1.27916C2.44857 1.10042 2.2061 1 1.95327 1C1.70044 1 1.45797 1.10042 1.27916 1.27916C1.10042 1.45797 1 1.70044 1 1.95327C1 2.2061 1.10042 2.44857 1.27916 2.62737L5.65179 7L1.27916 11.3726C1.10042 11.5514 1 11.7939 1 12.0467C1 12.2996 1.10042 12.542 1.27916 12.7208C1.45797 12.8996 1.70044 13 1.95327 13C2.2061 13 2.44857 12.8996 2.62737 12.7208L7 8.34821L11.3726 12.7208C11.5514 12.8996 11.7939 13 12.0467 13C12.2996 13 12.542 12.8996 12.7208 12.7208C12.8996 12.542 13 12.2996 13 12.0467C13 11.7939 12.8996 11.5514 12.7208 11.3726L8.34821 7L12.7208 2.62737C12.8996 2.44857 13 2.2061 13 1.95327C13 1.70044 12.8996 1.45797 12.7208 1.27916Z" fill="#212529"/>
</g>
</svg>
