<svg width="20" height="21" viewBox="0 0 20 21" fill="none" xmlns="http://www.w3.org/2000/svg">
<g clip-path="url(#clip0_1089_1202)">
<path d="M15.3863 11.2313C15.1438 11.0338 14.7951 11.0425 14.5663 11.2513C13.3326 12.3788 11.7101 13 10.0001 13C8.29006 13 6.66756 12.3788 5.43381 11.2513C5.20381 11.0413 4.85381 11.0338 4.61506 11.23C4.37506 11.4288 4.31631 11.7738 4.47881 12.0375L9.46631 20.2C9.58006 20.3863 9.78256 20.5 10.0001 20.5C10.2176 20.5 10.4201 20.3863 10.5338 20.2013L15.5213 12.0388C15.6838 11.7738 15.6251 11.4288 15.3863 11.2313Z" fill="#212529"/>
<path d="M10 0.5C6.89875 0.5 4.375 3.02375 4.375 6.125C4.375 9.22625 6.89875 11.75 10 11.75C13.1012 11.75 15.625 9.22625 15.625 6.125C15.625 3.02375 13.1012 0.5 10 0.5ZM10 5.5C11.0338 5.5 11.875 6.34125 11.875 7.375C11.875 8.40875 11.0338 9.25 10 9.25H8.75C8.405 9.25 8.125 8.97 8.125 8.625C8.125 8.28 8.405 8 8.75 8H10C10.345 8 10.625 7.72 10.625 7.375C10.625 7.03 10.345 6.75 10 6.75C8.96625 6.75 8.125 5.90875 8.125 4.875C8.125 3.84125 8.96625 3 10 3H11.25C11.595 3 11.875 3.28 11.875 3.625C11.875 3.97 11.595 4.25 11.25 4.25H10C9.655 4.25 9.375 4.53 9.375 4.875C9.375 5.22 9.655 5.5 10 5.5Z" fill="#212529"/>
</g>
<defs>
<clipPath id="clip0_1089_1202">
<rect width="20" height="20" fill="white" transform="translate(0 0.5)"/>
</clipPath>
</defs>
</svg>
