<svg width="31" height="31" viewBox="0 0 31 31" fill="none" xmlns="http://www.w3.org/2000/svg">
<g clip-path="url(#clip0_1957_41)">
<path d="M17 5.52003C17 4.83003 17.5588 4.27003 18.25 4.27003H23.345L21.7325 2.62503C21.2488 2.13128 21.2563 1.34003 21.75 0.856279C22.2413 0.375029 23.035 0.380029 23.5175 0.873779L26.2388 3.65003C26.7275 4.13753 27 4.79628 27 5.49878C27 6.20128 26.7263 6.86128 26.23 7.35753L23.5175 10.1238C23.2738 10.3738 22.9488 10.4988 22.625 10.4988C22.3088 10.4988 21.9925 10.38 21.75 10.1413C21.2563 9.65753 21.25 8.86628 21.7325 8.37253L23.305 6.76753H18.25C17.5588 6.76753 17 6.20753 17 5.51753V5.52003ZM29.685 11.3513C29.0413 10.765 28.2025 10.4613 27.3375 10.5038C26.4663 10.5438 25.6638 10.9213 25.095 11.5475L20.6688 16.2188C20.7088 16.4813 20.75 16.7438 20.75 17.0163C20.75 19.62 18.8063 21.8613 16.2288 22.2288L10.9138 22.9738C10.23 23.0713 9.59753 22.5963 9.50003 21.9138C9.40253 21.23 9.87753 20.5975 10.56 20.5L15.7625 19.7713C16.9325 19.6038 17.9475 18.7638 18.1875 17.6063C18.5575 15.825 17.2 14.25 15.4825 14.25H11.9988V13H12.4688C14.2775 13 15.7488 11.5288 15.7488 9.72003C15.7488 8.11003 14.595 6.74878 13.0075 6.48503L8.90128 5.80003C8.52378 5.73753 8.25003 5.41378 8.25003 5.03003C8.25003 4.60003 8.60003 4.25003 9.03003 4.25003H12.335C12.78 4.25003 13.195 4.49003 13.4188 4.87503C13.7625 5.47253 14.525 5.67753 15.1263 5.33128C15.7238 4.98503 15.9288 4.22128 15.5813 3.62378C14.9138 2.46753 13.6688 1.74878 12.3338 1.74878H11.9988C11.9988 1.05878 11.44 0.498779 10.7488 0.498779C10.0575 0.498779 9.49878 1.05878 9.49878 1.74878H9.02878C7.22003 1.74878 5.74878 3.22003 5.74878 5.02878C5.74878 6.63878 6.90253 8.00003 8.49003 8.26378L12.5963 8.94878C12.9738 9.01128 13.2475 9.33503 13.2475 9.71878C13.2475 10.1488 12.8975 10.4988 12.4675 10.4988H9.16253C8.71753 10.4988 8.30253 10.2588 8.07878 9.87378C7.73503 9.27503 6.97128 9.07003 6.37128 9.41753C5.77378 9.76378 5.56878 10.5275 5.91628 11.125C6.58378 12.2813 7.82878 12.9988 9.16378 12.9988H9.49878V14.2488H5.74878C2.98753 14.2488 0.748779 16.4875 0.748779 19.2488V25.4988C0.748779 28.26 2.98753 30.4988 5.74878 30.4988H11.0763C14.5825 30.4988 17.9263 29.0263 20.2938 26.4413L29.9213 15.93C31.1063 14.6025 30.9988 12.5463 29.685 11.3488V11.3513Z" fill="#212529"/>
</g>
<defs>
<clipPath id="clip0_1957_41">
<rect width="30" height="30" fill="white" transform="translate(0.75 0.5)"/>
</clipPath>
</defs>
</svg>
