<svg width="20" height="19" viewBox="0 0 20 19" fill="none" xmlns="http://www.w3.org/2000/svg">
<path d="M12.8125 7.625C12.8125 8.37092 12.5162 9.08629 11.9887 9.61374C11.4613 10.1412 10.7459 10.4375 10 10.4375C9.25408 10.4375 8.53871 10.1412 8.01126 9.61374C7.48382 9.08629 7.1875 8.37092 7.1875 7.625V0.4375H12.8125V7.625ZM0.9375 0.4375H6.5625V7.625C6.5625 8.37092 6.26618 9.08629 5.73874 9.61374C5.21129 10.1412 4.49592 10.4375 3.75 10.4375C3.00408 10.4375 2.28871 10.1412 1.76126 9.61374C1.23382 9.08629 0.9375 8.37092 0.9375 7.625V0.4375ZM3.75 18.5625C3.00436 18.5616 2.28952 18.265 1.76227 17.7377C1.23502 17.2105 0.93841 16.4956 0.9375 15.75V9.59531C1.25356 10.0482 1.67431 10.4181 2.16397 10.6734C2.65364 10.9288 3.19774 11.0622 3.75 11.0622C4.30226 11.0622 4.84636 10.9288 5.33603 10.6734C5.82569 10.4181 6.24644 10.0482 6.5625 9.59531V15.75C6.56159 16.4956 6.26498 17.2105 5.73773 17.7377C5.21048 18.265 4.49564 18.5616 3.75 18.5625ZM10 18.5625C9.25436 18.5616 8.53952 18.265 8.01227 17.7377C7.48502 17.2105 7.18841 16.4956 7.1875 15.75V9.59594C7.5036 10.0488 7.92437 10.4186 8.41403 10.6739C8.90369 10.9292 9.44776 11.0626 10 11.0626C10.5522 11.0626 11.0963 10.9292 11.586 10.6739C12.0756 10.4186 12.4964 10.0488 12.8125 9.59594V15.75C12.8116 16.4956 12.515 17.2105 11.9877 17.7377C11.4605 18.265 10.7456 18.5616 10 18.5625ZM19.0625 15.75C19.0625 16.4959 18.7662 17.2113 18.2387 17.7387C17.7113 18.2662 16.9959 18.5625 16.25 18.5625C15.5041 18.5625 14.7887 18.2662 14.2613 17.7387C13.7338 17.2113 13.4375 16.4959 13.4375 15.75V9.59594C13.7536 10.0488 14.1743 10.4187 14.664 10.6741C15.1536 10.9295 15.6977 11.0628 16.25 11.0628C16.8023 11.0628 17.3464 10.9295 17.836 10.6741C18.3257 10.4187 18.7464 10.0488 19.0625 9.59594V15.75ZM16.25 10.4375C15.5044 10.4366 14.7895 10.14 14.2623 9.61273C13.735 9.08548 13.4384 8.37064 13.4375 7.625V0.4375H19.0625V7.625C19.0616 8.37064 18.765 9.08548 18.2377 9.61273C17.7105 10.14 16.9956 10.4366 16.25 10.4375Z" fill="#212529"/>
</svg>
