<svg width="20" height="21" viewBox="0 0 20 21" fill="none" xmlns="http://www.w3.org/2000/svg">
<g clip-path="url(#clip0_1089_1194)">
<path d="M8.5552 12.1611C8.37609 11.9968 8.11344 11.9596 7.8966 12.0684L2.70668 14.6633C2.50813 14.7629 2.38281 14.9654 2.38281 15.1875C2.38281 15.4095 2.50813 15.612 2.70668 15.7116L7.89656 18.3066C8.10891 18.4135 8.37285 18.3811 8.55516 18.2139C8.73426 18.0491 8.7932 17.791 8.70277 17.565C8.39727 16.7999 8.24219 15.9994 8.24219 15.1875C8.24219 14.3755 8.39727 13.575 8.70281 12.81C8.7932 12.5839 8.7343 12.3259 8.5552 12.1611Z" fill="#212529"/>
<path d="M11.3614 8.83891C11.5437 9.007 11.8087 9.03798 12.02 8.93161L17.2099 6.33665C17.4084 6.23708 17.5337 6.03454 17.5337 5.81251C17.5337 5.59048 17.4084 5.38794 17.2099 5.28837L12.02 2.6934C11.8037 2.58411 11.5399 2.6213 11.3614 2.7861C11.1823 2.9509 11.1234 3.2084 11.2138 3.43442C11.5193 4.20176 11.6744 5.00169 11.6744 5.81251C11.6744 6.62333 11.5193 7.42325 11.2138 8.19059C11.1234 8.41661 11.1823 8.67411 11.3614 8.83891Z" fill="#212529"/>
<path d="M14.6875 9.91406C11.7796 9.91406 9.41406 12.2796 9.41406 15.1875C9.41406 18.0954 11.7796 20.5 14.6875 20.5C17.5954 20.5 20 18.0954 20 15.1875C20 12.2796 17.5954 9.91406 14.6875 9.91406ZM17.5869 14.201L16.415 17.7166C16.3355 17.9558 16.1117 18.1172 15.8594 18.1172C15.607 18.1172 15.3833 17.9558 15.3038 17.7166L14.6875 15.8684L14.0712 17.7166C13.9122 18.195 13.1191 18.195 12.96 17.7166L11.7882 14.201C11.6857 13.8938 11.8517 13.5619 12.1584 13.46C12.4685 13.3553 12.7975 13.5235 12.8994 13.8302L13.5156 15.6784L14.1319 13.8302C14.2909 13.3519 15.084 13.3519 15.2431 13.8302L15.8594 15.6784L16.4756 13.8302C16.578 13.5235 16.9059 13.3553 17.2166 13.46C17.5234 13.5619 17.6893 13.8938 17.5869 14.201Z" fill="#212529"/>
<path d="M0 5.8125C0 8.72043 2.40457 11.0859 5.3125 11.0859C8.22043 11.0859 10.5859 8.72043 10.5859 5.8125C10.5859 2.90457 8.22043 0.5 5.3125 0.5C2.40457 0.5 0 2.90457 0 5.8125ZM3.55469 3.46875C3.55469 3.14488 3.81676 2.88281 4.14062 2.88281H6.48438C6.80824 2.88281 7.07031 3.14488 7.07031 3.46875C7.07031 3.79262 6.80824 4.05469 6.48438 4.05469H4.72656V5.22656H6.48438C6.80824 5.22656 7.07031 5.48863 7.07031 5.8125C7.07031 6.13637 6.80824 6.39844 6.48438 6.39844H4.72656V7.57031H6.48438C6.80824 7.57031 7.07031 7.83238 7.07031 8.15625C7.07031 8.48012 6.80824 8.74219 6.48438 8.74219H4.14062C3.81676 8.74219 3.55469 8.48012 3.55469 8.15625C3.55469 8.02902 3.55469 3.29473 3.55469 3.46875Z" fill="#212529"/>
</g>
<defs>
<clipPath id="clip0_1089_1194">
<rect width="20" height="20" fill="white" transform="translate(0 0.5)"/>
</clipPath>
</defs>
</svg>
