<svg width="24" height="25" viewBox="0 0 24 25" fill="none" xmlns="http://www.w3.org/2000/svg">
<g clip-path="url(#clip0_1957_47)">
<path d="M22.853 1.64795C22.1732 0.969151 21.2517 0.587891 20.291 0.587891C19.3303 0.587891 18.4089 0.969151 17.729 1.64795L1.46502 17.912C0.999266 18.3751 0.629977 18.926 0.378513 19.5327C0.127049 20.1395 -0.00159798 20.7901 1.49812e-05 21.447V23.5C1.49812e-05 23.7652 0.105372 24.0195 0.292908 24.2071C0.480445 24.3946 0.734799 24.5 1.00002 24.5H3.05301C3.70978 24.5018 4.36038 24.3734 4.96717 24.1221C5.57396 23.8708 6.12487 23.5016 6.58801 23.036L22.853 6.77095C23.5315 6.09115 23.9126 5.16992 23.9126 4.20945C23.9126 3.24899 23.5315 2.32776 22.853 1.64795ZM5.17401 21.622C4.61002 22.1822 3.84798 22.4977 3.05301 22.5H2.00002V21.447C1.999 21.0529 2.07617 20.6625 2.22705 20.2984C2.37793 19.9343 2.59953 19.6038 2.87901 19.326L15.222 6.98295L17.522 9.28295L5.17401 21.622ZM21.438 5.35695L18.932 7.86395L16.632 5.56895L19.139 3.06195C19.29 2.91126 19.4693 2.79179 19.6664 2.71036C19.8636 2.62893 20.0749 2.58714 20.2883 2.58738C20.5016 2.58761 20.7128 2.62986 20.9098 2.71172C21.1069 2.79357 21.2858 2.91343 21.4365 3.06445C21.5872 3.21547 21.7067 3.3947 21.7881 3.59189C21.8695 3.78908 21.9113 4.00038 21.9111 4.21372C21.9109 4.42706 21.8686 4.63827 21.7868 4.83529C21.7049 5.0323 21.585 5.21126 21.434 5.36195L21.438 5.35695Z" fill="#212529"/>
</g>
<defs>
<clipPath id="clip0_1957_47">
<rect width="24" height="24" fill="white" transform="translate(0 0.5)"/>
</clipPath>
</defs>
</svg>
