<svg width="30" height="30" viewBox="0 0 30 30" fill="none" xmlns="http://www.w3.org/2000/svg">
<rect x="0.5" y="0.5" width="29" height="29" rx="14.5" stroke="#E9E9E9"/>
<path d="M19.1667 14.1667H15.8333V10.8333C15.8333 10.6123 15.7455 10.4004 15.5893 10.2441C15.433 10.0878 15.221 10 15 10C14.779 10 14.567 10.0878 14.4107 10.2441C14.2545 10.4004 14.1667 10.6123 14.1667 10.8333V14.1667H10.8333C10.6123 14.1667 10.4004 14.2545 10.2441 14.4107C10.0878 14.567 10 14.779 10 15C10 15.221 10.0878 15.433 10.2441 15.5893C10.4004 15.7455 10.6123 15.8333 10.8333 15.8333H14.1667V19.1667C14.1667 19.3877 14.2545 19.5996 14.4107 19.7559C14.567 19.9122 14.779 20 15 20C15.221 20 15.433 19.9122 15.5893 19.7559C15.7455 19.5996 15.8333 19.3877 15.8333 19.1667V15.8333H19.1667C19.3877 15.8333 19.5996 15.7455 19.7559 15.5893C19.9122 15.433 20 15.221 20 15C20 14.779 19.9122 14.567 19.7559 14.4107C19.5996 14.2545 19.3877 14.1667 19.1667 14.1667Z" fill="#212529"/>
</svg>
