<svg width="20" height="21" viewBox="0 0 20 21" fill="none" xmlns="http://www.w3.org/2000/svg">
<g clip-path="url(#clip0_1089_1114)">
<path d="M2.76001 4.17999V5.73999C2.76001 5.97999 2.96001 6.17999 3.20001 6.17999H4.20001V3.73999H3.20001C2.96001 3.73999 2.76001 3.93999 2.76001 4.17999Z" fill="#212529"/>
<path d="M7.04004 3.73999H12.96V6.17999H7.04004V3.73999Z" fill="#212529"/>
<path d="M16.8 3.73999H15.8V6.17999H16.8C17.04 6.17999 17.24 5.97999 17.24 5.73999V4.17999C17.24 3.93999 17.04 3.73999 16.8 3.73999Z" fill="#212529"/>
<path d="M2.76001 9.70004V11.3C2.76001 11.54 2.96001 11.74 3.20001 11.74H4.20001V9.30004H3.20001C2.96001 9.26004 2.76001 9.46004 2.76001 9.70004Z" fill="#212529"/>
<path d="M7.04004 9.26001H12.96V11.7H7.04004V9.26001Z" fill="#212529"/>
<path d="M16.8 9.26001H15.8V11.7H16.8C17.04 11.7 17.24 11.5 17.24 11.26V9.70001C17.24 9.46001 17.04 9.26001 16.8 9.26001Z" fill="#212529"/>
<path d="M2.76001 15.2601V16.8201C2.76001 17.0601 2.96001 17.2601 3.20001 17.2601H4.20001V14.8201H3.20001C2.96001 14.8201 2.76001 15.0201 2.76001 15.2601Z" fill="#212529"/>
<path d="M7.04004 14.8201H12.96V17.2601H7.04004V14.8201Z" fill="#212529"/>
<path d="M16.8 14.8201H15.8V17.2601H16.8C17.04 17.2601 17.24 17.0601 17.24 16.8201V15.2601C17.24 15.0201 17.04 14.8201 16.8 14.8201Z" fill="#212529"/>
<path d="M6.2001 0.900024H5.0801C4.8401 0.900024 4.6001 1.10002 4.6001 1.38002V19.66C4.6001 19.9 4.8001 20.14 5.0801 20.14H6.2001C6.4401 20.14 6.6801 19.94 6.6801 19.66V1.38002C6.6401 1.10002 6.4401 0.900024 6.2001 0.900024Z" fill="#212529"/>
<path d="M14.9201 0.900024H13.8001C13.5601 0.900024 13.3201 1.10002 13.3201 1.38002V19.66C13.3201 19.9 13.5201 20.14 13.8001 20.14H14.9201C15.1601 20.14 15.4001 19.94 15.4001 19.66V1.38002C15.4001 1.10002 15.1601 0.900024 14.9201 0.900024Z" fill="#212529"/>
</g>
<defs>
<clipPath id="clip0_1089_1114">
<rect width="20" height="20" fill="white" transform="translate(0 0.5)"/>
</clipPath>
</defs>
</svg>
