<svg width="20" height="21" viewBox="0 0 20 21" fill="none" xmlns="http://www.w3.org/2000/svg">
<path d="M9.78125 16.4805V16.8359C8.75 15.7305 6.18359 15.7188 5.12109 16.7969L5.125 16.7734L5.13672 16.4844C5.26953 16.1563 5.53906 15.9023 5.83594 15.7227C6.96484 15.0234 9.16797 15.1523 9.78125 16.4805ZM4.99219 10.9414C4.83594 10.6211 4.53906 10.3906 4.22656 10.2305C3.12891 9.63281 1.11328 9.97266 0.71875 11.0312L0.710937 11.1133L0.164062 15.6055C1.29297 14.6719 3.05469 14.6172 4.28906 15.3711C4.45703 15.4766 4.60937 15.6016 4.74609 15.7422L5.01562 11.2656C5.00781 11.2422 5.00391 11.2148 5.00391 11.1875L5.01562 10.9727C5.00391 10.9688 5 10.9531 4.99219 10.9414ZM1.37891 5.14062L0.867187 9.35547C2.04687 8.41406 3.98828 8.4375 5.09766 9.48438L5.36328 5.11719C4.82031 3.80469 1.89453 3.81641 1.37891 5.14062ZM0.761719 10.2266C1.92969 9.22656 3.91406 9.23828 5.04687 10.2852L5.05078 10.1992C4.41016 8.75391 1.36328 8.76172 0.761719 10.2266ZM0.832031 15.6797C0.5 15.8633 0.195312 16.1328 0.0546875 16.4922L0.0273438 16.7578C1.12109 15.7109 3.67188 15.7539 4.67969 16.875L4.69922 16.4766C4.09375 15.1758 1.95703 15.0312 0.832031 15.6797ZM14.457 9.39844C14.4609 9.39844 14.4609 9.39844 14.4609 9.40234L14.2031 5.12891C13.9687 4.54687 13.1406 4.125 12.2109 4.125C11.2812 4.125 10.4531 4.54297 10.2187 5.125V9.44531C11.3516 8.43359 13.3008 8.41797 14.457 9.39844ZM14.8164 15.6602C14.8125 15.5508 14.5547 11.4375 14.5469 11.168L14.543 11.1641L14.5352 11.0273C14.0977 10.0977 12.8281 9.82422 11.8203 9.98438C11.2578 10.0859 10.6758 10.3281 10.3359 10.8086C10.2891 10.8789 10.2539 10.9492 10.2187 11.0273V15.707C11.4375 14.582 13.5703 14.5742 14.8164 15.6602ZM10.418 10.0977C11.5898 9.25 13.4141 9.28125 14.5078 10.2461C14.4531 9.99219 14.2344 9.78125 14.0352 9.62109C13.4023 9.16406 12.5703 9.03906 11.8086 9.16797C11.2852 9.26172 10.7539 9.47266 10.4062 9.88672C10.3242 10 10.2148 10.125 10.2148 10.2656C10.2812 10.2109 10.3398 10.1523 10.4102 10.1016C10.4141 10.0977 10.418 10.0977 10.418 10.0977ZM7.62891 9.9375C6.63281 9.9375 5.52344 10.4336 5.46094 11.1719C5.39844 12.2344 5.25391 14.5742 5.19141 15.6602C6.42969 14.5781 8.57031 14.582 9.78516 15.707V11.0273C9.42578 10.2266 8.4375 9.94531 7.62891 9.9375ZM19.8437 15.6094C19.8359 15.5938 19.3047 11.1211 19.2969 11.1055C19.1172 10.3984 18.1562 9.94531 17.1289 9.9375C16.3281 9.94531 15.375 10.2148 14.9922 10.9805C15.0273 12.2266 15.1953 14.5078 15.2617 15.75C15.5391 15.457 15.8984 15.2461 16.2734 15.0977C17.4414 14.6758 18.875 14.7969 19.8437 15.6094ZM19.2422 10.2266C18.7305 9.00781 16.6758 8.86328 15.6523 9.46875C15.4102 9.60156 15.1836 9.78516 15.0391 10.0234C14.9844 10.1133 14.9375 10.1758 14.9531 10.2812C16.0937 9.24219 18.0742 9.22656 19.2422 10.2266ZM19.9492 16.4883C19.8437 16.207 19.6289 15.9883 19.3906 15.8125C18.5 15.2109 17.2891 15.1523 16.3125 15.5625C15.8945 15.7461 15.4805 16.0391 15.3086 16.4766L15.3281 16.875C16.332 15.7539 18.8867 15.707 19.9766 16.7578L19.9492 16.4883ZM19.1367 9.35547L18.625 5.14062C18.3945 4.55469 17.5664 4.12891 16.6328 4.12891C15.7109 4.12891 14.8828 4.54297 14.6445 5.12109L14.9102 9.48828C16.0156 8.4375 17.957 8.41406 19.1367 9.35547ZM6.41797 9.36328C6.03906 9.53516 5.60156 9.82422 5.49219 10.2461C6.58984 9.28125 8.41016 9.25 9.58203 10.0977C9.65234 10.1484 9.71484 10.2109 9.78125 10.2656V10.2031C9.26562 9.06641 7.44531 8.90234 6.41797 9.36328ZM5.79687 5.12891C5.75781 5.76172 5.57422 8.83594 5.53906 9.40234C5.54297 9.39844 5.54297 9.39844 5.54297 9.39844C6.69922 8.41797 8.64844 8.42969 9.78125 9.44141V5.125C9.25 3.80859 6.32422 3.8125 5.79687 5.12891ZM14.6016 16.0703C13.9336 15.375 12.8672 15.2031 11.9453 15.3477C11.2812 15.4727 10.5508 15.7812 10.2422 16.4219C10.1992 16.4531 10.2266 16.7812 10.2187 16.832C11.2539 15.7305 13.8164 15.7148 14.8789 16.793C14.8789 16.7305 14.8672 16.543 14.8633 16.4805C14.8047 16.332 14.7148 16.1914 14.6016 16.0703Z" fill="#212529"/>
</svg>
