<svg width="31" height="31" viewBox="0 0 31 31" fill="none" xmlns="http://www.w3.org/2000/svg">
<g clip-path="url(#clip0_1957_9)">
<path d="M7.21484 28.7421C7.21484 29.7128 8.00182 30.4999 8.97266 30.4999C9.9435 30.4999 10.7305 29.7128 10.7305 28.7421V17.6477C10.2113 17.9505 9.61584 18.1366 8.97266 18.1366C8.32947 18.1366 7.73398 17.9505 7.21484 17.6477V28.7421Z" fill="#212529"/>
<path d="M12.4883 28.2303C12.9299 27.8229 13.9774 26.9844 15.125 26.9844C16.2763 26.9844 17.3197 27.8203 17.7617 28.2293V15.866C17.3197 15.457 16.2763 14.6211 15.125 14.6211C13.9774 14.6211 12.9299 15.4596 12.4883 15.867V28.2303Z" fill="#212529"/>
<path d="M17.7617 13.6846V1.32131C17.0485 0.886133 16.1436 0.5 15.125 0.5C14.1064 0.5 13.2015 0.886133 12.4883 1.32131V13.6846C13.2015 13.2494 14.1064 12.8633 15.125 12.8633C16.1436 12.8633 17.0485 13.2494 17.7617 13.6846Z" fill="#212529"/>
<path d="M5.45703 2.25781C5.45703 1.28697 4.67006 0.5 3.69922 0.5C1.18865 0.5 0.22373 2.71871 0.186816 2.81316C0.145625 2.91611 0.125 3.02598 0.125 3.13672V14.3045C0.855723 13.6989 2.18979 12.8633 3.69922 12.8633C4.3352 12.8633 4.925 13.0188 5.45703 13.237V2.25781Z" fill="#212529"/>
<path d="M0.125 16.8177V27.8633C0.125 28.2821 0.421953 28.6384 0.832227 28.7207C1.24338 28.7997 1.65535 28.58 1.81842 28.1946C1.86992 28.0701 2.42035 26.9844 3.69922 26.9844C4.23682 26.9844 4.8602 27.1681 5.45703 27.4144V15.2005C4.96268 14.8926 4.35154 14.6211 3.69922 14.6211C1.8677 14.6211 0.295918 16.6308 0.125 16.8177Z" fill="#212529"/>
<path d="M26.5508 0.5C25.5799 0.5 24.793 1.28697 24.793 2.25781V13.237C25.325 13.0188 25.9148 12.8633 26.5508 12.8633C28.0602 12.8633 29.3943 13.6989 30.125 14.3045V3.13672C30.125 3.02598 30.1044 2.91611 30.0632 2.81316C30.0263 2.71871 29.0613 0.5 26.5508 0.5Z" fill="#212529"/>
<path d="M26.5508 14.6211C25.8985 14.6211 25.2873 14.8926 24.793 15.2005V27.4144C25.3898 27.1681 26.0132 26.9844 26.5508 26.9844C27.8296 26.9844 28.3801 28.0701 28.4316 28.1946C28.5946 28.5799 29.0066 28.7997 29.4178 28.7207C29.828 28.6384 30.125 28.2821 30.125 27.8633V16.8177C28.3543 14.882 27.4076 14.6211 26.5508 14.6211Z" fill="#212529"/>
<path d="M19.5195 28.7421C19.5195 29.7128 20.3065 30.4999 21.2773 30.4999C22.2482 30.4999 23.0352 29.7128 23.0352 28.7421V17.6477C22.516 17.9505 21.9205 18.1366 21.2773 18.1366C20.6342 18.1366 20.0387 17.9505 19.5195 17.6477V28.7421Z" fill="#212529"/>
<path d="M7.21484 14.621C7.21484 15.5917 8.00182 16.3788 8.97266 16.3788C9.9435 16.3788 10.7305 15.5917 10.7305 14.621V3.52661C10.2113 3.82937 9.61584 4.01552 8.97266 4.01552C8.32947 4.01552 7.73398 3.82937 7.21484 3.52661V14.621Z" fill="#212529"/>
<path d="M19.5195 14.621C19.5195 15.5917 20.3065 16.3788 21.2773 16.3788C22.2482 16.3788 23.0352 15.5917 23.0352 14.621V3.52661C22.516 3.82937 21.9205 4.01552 21.2773 4.01552C20.6342 4.01552 20.0387 3.82937 19.5195 3.52661V14.621Z" fill="#212529"/>
</g>
<defs>
<clipPath id="clip0_1957_9">
<rect width="30" height="30" fill="white" transform="translate(0.125 0.5)"/>
</clipPath>
</defs>
</svg>
