<svg width="20" height="21" viewBox="0 0 20 21" fill="none" xmlns="http://www.w3.org/2000/svg">
<path d="M13.125 4.11316C13.8495 4.91788 14.8575 5.41069 15.9375 5.48816V8.93753C15.9375 9.68346 15.6412 10.3988 15.1137 10.9263C14.5863 11.4537 13.8709 11.75 13.125 11.75C12.3791 11.75 11.6637 11.4537 11.1363 10.9263C10.6088 10.3988 10.3125 9.68346 10.3125 8.93753V5.48378C11.392 5.4079 12.4001 4.91663 13.125 4.11316ZM4.0625 5.48816C5.14251 5.41069 6.15053 4.91788 6.875 4.11316C7.59992 4.91663 8.608 5.4079 9.6875 5.48378V8.93753C9.6875 9.68346 9.39118 10.3988 8.86374 10.9263C8.33629 11.4537 7.62092 11.75 6.875 11.75C6.12908 11.75 5.41371 11.4537 4.88626 10.9263C4.35882 10.3988 4.0625 9.68346 4.0625 8.93753V5.48816ZM3.75 17.0625C3.00436 17.0616 2.28952 16.765 1.76227 16.2378C1.23502 15.7105 0.93841 14.9957 0.9375 14.25V10.801C1.903 10.7304 2.81404 10.3268 3.515 9.6591C3.66994 10.3747 4.04894 11.0222 4.59695 11.5078C5.14497 11.9933 5.83347 12.2915 6.5625 12.3591V14.25C6.56159 14.9957 6.26498 15.7105 5.73773 16.2378C5.21048 16.765 4.49564 17.0616 3.75 17.0625ZM10 17.0625C9.25436 17.0616 8.53952 16.765 8.01227 16.2378C7.48502 15.7105 7.18841 14.9957 7.1875 14.25V12.3594C7.78972 12.3038 8.36669 12.0906 8.86039 11.7413C9.35409 11.3919 9.74713 10.9188 10 10.3694C10.2529 10.9188 10.6459 11.3919 11.1396 11.7413C11.6333 12.0906 12.2103 12.3038 12.8125 12.3594V14.25C12.8116 14.9957 12.515 15.7105 11.9877 16.2378C11.4605 16.765 10.7456 17.0616 10 17.0625ZM19.0625 14.25C19.0625 14.996 18.7662 15.7113 18.2387 16.2388C17.7113 16.7662 16.9959 17.0625 16.25 17.0625C15.5041 17.0625 14.7887 16.7662 14.2613 16.2388C13.7338 15.7113 13.4375 14.996 13.4375 14.25V12.3591C14.1665 12.2915 14.855 11.9933 15.403 11.5078C15.9511 11.0222 16.3301 10.3747 16.485 9.6591C17.186 10.3268 18.097 10.7304 19.0625 10.801V14.25Z" fill="#212529"/>
</svg>
