<svg width="20" height="21" viewBox="0 0 20 21" fill="none" xmlns="http://www.w3.org/2000/svg">
<path fill-rule="evenodd" clip-rule="evenodd" d="M7.31279 2.38607C7.77258 2.35419 8.23258 2.23919 8.69258 2.04232C8.75237 2.01669 9.07779 1.88857 9.13675 1.87378C9.52341 1.77711 9.93675 1.77919 10.3224 1.88044C10.3726 1.89357 10.7309 2.03919 10.8161 2.07399C11.9557 2.53919 13.0953 2.50253 14.2347 1.94169C15.473 1.47149 16.7111 1.43524 17.9495 1.94169C18.3188 2.08607 18.6884 2.19232 19.0578 2.25607C19.3592 2.30482 19.5807 2.56503 19.5807 2.87023C19.5834 5.39148 19.5834 15.8002 19.5834 18.6325C19.5834 18.8211 19.4982 18.9996 19.3517 19.1184C19.2051 19.2371 19.0128 19.2832 18.8284 19.244C18.5359 19.1763 18.2426 19.0857 17.9495 18.9713C16.7111 18.4646 15.473 18.5009 14.2347 18.9713C13.8272 19.1719 13.4195 19.3054 13.0117 19.3729V11.7388C13.0117 11.5663 12.8717 11.4263 12.6992 11.4263C12.5267 11.4263 12.3867 11.5663 12.3867 11.7388V19.4117C12.3867 19.4161 12.387 19.4204 12.387 19.4248C11.8634 19.425 11.3397 19.3173 10.8161 19.1034C10.7309 19.0686 10.3726 18.9229 10.3224 18.9098C9.93675 18.8088 9.52341 18.8065 9.13675 18.9034C9.07779 18.9182 8.75237 19.0461 8.69258 19.0717C7.52779 19.57 6.363 19.5444 5.19821 18.9713C3.96008 18.5009 2.72175 18.4646 1.48362 18.9713C1.40487 19.0019 1.32633 19.0309 1.24779 19.0582C1.05675 19.1248 0.84529 19.095 0.68029 18.9779C0.515498 18.8609 0.417373 18.6711 0.417373 18.4688C0.416748 15.4834 0.416748 5.13815 0.416748 2.74524C0.416748 2.46294 0.606123 2.21586 0.878623 2.14211C1.0805 2.08794 1.28196 2.02044 1.48362 1.94169C2.72175 1.43524 3.96008 1.47149 5.19821 1.94169C5.69487 2.18628 6.19154 2.33107 6.68821 2.37815C6.688 2.38378 6.68779 2.3894 6.68779 2.39503V12.7588C6.68779 12.9311 6.82779 13.0713 7.00029 13.0713C7.17279 13.0713 7.31279 12.9311 7.31279 12.7588V2.39503C7.31279 2.3919 7.31279 2.38899 7.31279 2.38607ZM6.68779 14.4804V17.3861C6.68779 17.5586 6.82779 17.6986 7.00029 17.6986C7.17279 17.6986 7.31279 17.5586 7.31279 17.3861V14.4804C7.31279 14.3082 7.17279 14.1679 7.00029 14.1679C6.82779 14.1679 6.68779 14.3082 6.68779 14.4804ZM13.0117 9.8744V7.5769C13.0117 7.4044 12.8717 7.2644 12.6992 7.2644C12.5267 7.2644 12.3867 7.4044 12.3867 7.5769V9.8744C12.3867 10.0469 12.5267 10.1869 12.6992 10.1869C12.8717 10.1869 13.0117 10.0469 13.0117 9.8744Z" fill="#212529"/>
</svg>
