<svg width="31" height="31" viewBox="0 0 31 31" fill="none" xmlns="http://www.w3.org/2000/svg">
<g clip-path="url(#clip0_1957_27)">
<path d="M22.8752 29.25C22.8752 29.9412 22.3152 30.5 21.6252 30.5H9.12516C8.43516 30.5 7.87516 29.9412 7.87516 29.25C7.87516 28.5588 8.43516 28 9.12516 28H14.1252V23H10.8489L11.4739 13H19.2764L19.9014 23H16.6252V28H21.6252C22.3152 28 22.8752 28.5588 22.8752 29.25ZM18.5002 0.5775C18.4989 0.55125 18.4977 0.525 18.4977 0.5H12.2527C12.2527 0.52625 12.2527 0.5525 12.2502 0.5775L11.6302 10.5H19.1202L18.5002 0.5775ZM29.6552 10.5L29.0752 5.9575C28.6777 2.84625 26.0127 0.5 22.8752 0.5H21.0002L21.6252 10.5H29.6552ZM30.3514 15.9575L29.9739 13H21.7814C21.7814 13 22.4039 22.9737 22.4039 23H24.1527C25.9477 23 27.6577 22.2275 28.8427 20.88C30.0289 19.5338 30.5789 17.7388 30.3514 15.9575ZM9.75016 0.5H7.90266C4.76641 0.5 2.10141 2.84625 1.70391 5.9575L1.12391 10.5H9.12516L9.75016 0.5ZM8.96891 13H0.803911L0.426411 15.9575C0.198911 17.7388 0.74891 19.5325 1.93641 20.88C3.12266 22.2275 4.83141 23 6.62641 23H8.34766C8.34766 22.9737 8.96891 13 8.96891 13Z" fill="#212529"/>
</g>
<defs>
<clipPath id="clip0_1957_27">
<rect width="30" height="30" fill="white" transform="translate(0.375 0.5)"/>
</clipPath>
</defs>
</svg>
