<svg width="24" height="25" viewBox="0 0 24 25" fill="none" xmlns="http://www.w3.org/2000/svg">
<g clip-path="url(#clip0_1957_51)">
<path d="M21 4.5H17.9C17.6679 3.37141 17.0538 2.35735 16.1613 1.62872C15.2687 0.90009 14.1522 0.501455 13 0.5L11 0.5C9.8478 0.501455 8.73132 0.90009 7.83875 1.62872C6.94618 2.35735 6.3321 3.37141 6.1 4.5H3C2.73478 4.5 2.48043 4.60536 2.29289 4.79289C2.10536 4.98043 2 5.23478 2 5.5C2 5.76522 2.10536 6.01957 2.29289 6.20711C2.48043 6.39464 2.73478 6.5 3 6.5H4V19.5C4.00159 20.8256 4.52888 22.0964 5.46622 23.0338C6.40356 23.9711 7.67441 24.4984 9 24.5H15C16.3256 24.4984 17.5964 23.9711 18.5338 23.0338C19.4711 22.0964 19.9984 20.8256 20 19.5V6.5H21C21.2652 6.5 21.5196 6.39464 21.7071 6.20711C21.8946 6.01957 22 5.76522 22 5.5C22 5.23478 21.8946 4.98043 21.7071 4.79289C21.5196 4.60536 21.2652 4.5 21 4.5ZM11 2.5H13C13.6203 2.50076 14.2251 2.69338 14.7316 3.05144C15.2381 3.40951 15.6214 3.91549 15.829 4.5H8.171C8.37858 3.91549 8.7619 3.40951 9.26839 3.05144C9.77487 2.69338 10.3797 2.50076 11 2.5ZM18 19.5C18 20.2956 17.6839 21.0587 17.1213 21.6213C16.5587 22.1839 15.7956 22.5 15 22.5H9C8.20435 22.5 7.44129 22.1839 6.87868 21.6213C6.31607 21.0587 6 20.2956 6 19.5V6.5H18V19.5Z" fill="#C93C2D"/>
<path d="M10 18.5C10.2652 18.5 10.5196 18.3946 10.7071 18.2071C10.8946 18.0196 11 17.7652 11 17.5V11.5C11 11.2348 10.8946 10.9804 10.7071 10.7929C10.5196 10.6054 10.2652 10.5 10 10.5C9.73478 10.5 9.48043 10.6054 9.29289 10.7929C9.10536 10.9804 9 11.2348 9 11.5V17.5C9 17.7652 9.10536 18.0196 9.29289 18.2071C9.48043 18.3946 9.73478 18.5 10 18.5Z" fill="#C93C2D"/>
<path d="M14 18.5C14.2652 18.5 14.5196 18.3946 14.7071 18.2071C14.8946 18.0196 15 17.7652 15 17.5V11.5C15 11.2348 14.8946 10.9804 14.7071 10.7929C14.5196 10.6054 14.2652 10.5 14 10.5C13.7348 10.5 13.4804 10.6054 13.2929 10.7929C13.1054 10.9804 13 11.2348 13 11.5V17.5C13 17.7652 13.1054 18.0196 13.2929 18.2071C13.4804 18.3946 13.7348 18.5 14 18.5Z" fill="#C93C2D"/>
</g>
<defs>
<clipPath id="clip0_1957_51">
<rect width="24" height="24" fill="white" transform="translate(0 0.5)"/>
</clipPath>
</defs>
</svg>
